<?xml version="1.0" encoding="UTF-8" standalone="no"?>
<svg
   xmlns:dc="http://purl.org/dc/elements/1.1/"
   xmlns:cc="http://creativecommons.org/ns#"
   xmlns:rdf="http://www.w3.org/1999/02/22-rdf-syntax-ns#"
   xmlns:svg="http://www.w3.org/2000/svg"
   xmlns="http://www.w3.org/2000/svg"
   xmlns:sodipodi="http://sodipodi.sourceforge.net/DTD/sodipodi-0.dtd"
   xmlns:inkscape="http://www.inkscape.org/namespaces/inkscape"
   width="1550"
   height="512"
   viewBox="0 0 410.10417 135.46667"
   version="1.1"
   id="svg8"
   inkscape:version="1.0 (4035a4fb49, 2020-05-01)"
   sodipodi:docname="logo-long.svg">
  <defs
     id="defs2" />
  <sodipodi:namedview
     id="base"
     pagecolor="#ffffff"
     bordercolor="#666666"
     borderopacity="1.0"
     inkscape:pageopacity="0.0"
     inkscape:pageshadow="2"
     inkscape:zoom="1"
     inkscape:cx="1070.4723"
     inkscape:cy="282.84232"
     inkscape:document-units="mm"
     inkscape:current-layer="layer1"
     inkscape:document-rotation="0"
     showgrid="false"
     units="px"
     inkscape:window-width="3840"
     inkscape:window-height="2126"
     inkscape:window-x="-11"
     inkscape:window-y="-11"
     inkscape:window-maximized="1" />
  <metadata
     id="metadata5">
    <rdf:RDF>
      <cc:Work
         rdf:about="">
        <dc:format>image/svg+xml</dc:format>
        <dc:type
           rdf:resource="http://purl.org/dc/dcmitype/StillImage" />
        <dc:title></dc:title>
      </cc:Work>
    </rdf:RDF>
  </metadata>
  <g
     inkscape:label="Layer 1"
     inkscape:groupmode="layer"
     id="layer1">
    <path
       transform="scale(0.26458333)"
       d="m 225.75781,47.78125 -8.03906,48.238281 C 204.31962,99.592122 192.70778,104.9507 181.0957,111.20312 L 141.79102,83.509766 85.513672,138.89453 114.09961,178.19922 c -6.25242,11.61361 -11.61338,24.11648 -15.187501,37.51562 l -48.236328,7.14844 v 78.60742 l 48.236328,8.03907 c 3.572591,13.39914 8.933551,25.01292 15.187501,36.625 l -28.585938,40.19726 55.384768,55.38281 40.19726,-28.58593 c 11.61208,6.25239 24.11843,11.61339 37.51758,15.1875 l 8.03906,47.34179 h 78.60938 l 8.03711,-48.23632 c 12.50631,-3.5726 25.01147,-8.93308 36.625,-15.18555 l 40.19726,28.58594 55.38282,-55.38282 -28.58399,-40.19922 c 6.2524,-11.61361 11.61299,-23.2239 15.18555,-36.62304 l 47.34375,-7.14649 v -78.60742 l -48.23828,-8.04101 c -3.5726,-13.39915 -8.9316,-25.90373 -15.18555,-36.62305 L 444.61133,138.89453 389.22656,82.617188 349.0293,110.31055 C 337.4173,104.05813 324.91098,98.699133 312.40625,95.125 l -8.03906,-47.34375 z m 39.29492,64.75781 a 149.44458,149.44458 0 0 1 0.01,0 A 149.44458,149.44458 0 0 1 414.50781,261.98438 149.44458,149.44458 0 0 1 265.0625,411.42969 149.44458,149.44458 0 0 1 115.61719,261.98438 149.44458,149.44458 0 0 1 265.05273,112.53906 Z m -2.42382,16.83789 c -0.85863,0.004 -1.72037,0.0171 -2.58399,0.043 -53.42103,1.60126 -94.60156,48.20513 -94.60156,101.64649 v 134.16015 c 0,7.24889 8.75879,10.87402 13.88281,5.75 l 12.66797,-9.41992 c 3.38551,-2.51627 8.13265,-2.02863 10.93359,1.12305 l 21.83399,24.57812 c 3.17711,3.17711 8.32486,3.17711 11.50195,0 l 20.70117,-23.30664 c 3.23809,-3.64476 8.92519,-3.64476 12.15821,0 l 20.69922,23.30664 c 3.1771,3.17711 8.32681,3.17711 11.5039,0 l 21.83399,-24.57812 c 2.80092,-3.15168 7.54808,-3.64442 10.93359,-1.12305 l 12.66797,9.41992 c 5.12401,5.12402 13.88281,1.49378 13.88281,-5.75 V 226.97461 c 0,-54.04248 -43.92223,-97.82336 -98.01562,-97.59766 z m -32.11914,81.33203 c 8.9823,0 16.26757,7.28333 16.26757,16.26563 0,8.98229 -7.28527,16.26758 -16.26757,16.26758 -8.9823,0 -16.26563,-7.28529 -16.26563,-16.26758 0,-8.9823 7.28333,-16.26563 16.26563,-16.26563 z m 65.06835,0 c 8.98229,0 16.26563,7.28333 16.26563,16.26563 0,8.98229 -7.28334,16.26758 -16.26563,16.26758 -8.9823,0 -16.26757,-7.28529 -16.26757,-16.26758 0,-8.9823 7.28527,-16.26563 16.26757,-16.26563 z"
       style="fill:#00b8b8;fill-opacity:1;stroke-width:1.53132"
       id="path851" />
    <g
       style="font-style:normal;font-variant:normal;font-weight:600;font-stretch:normal;font-size:61.9136px;line-height:1.25;font-family:'Asap Condensed';-inkscape-font-specification:'Asap Condensed, Semi-Bold';font-variant-ligatures:normal;font-variant-caps:normal;font-variant-numeric:normal;font-variant-east-asian:normal;letter-spacing:0px;word-spacing:0px;fill:#00b8b8;fill-opacity:1;stroke:none;stroke-width:3.17638"
       id="text869"
       aria-label="phantom di">
      <path
         id="path890"
         style="font-style:normal;font-variant:normal;font-weight:600;font-stretch:normal;font-size:61.9136px;font-family:'Asap Condensed';-inkscape-font-specification:'Asap Condensed, Semi-Bold';font-variant-ligatures:normal;font-variant-caps:normal;font-variant-numeric:normal;font-variant-east-asian:normal;fill:#00b8b8;fill-opacity:1;stroke-width:3.17638"
         d="m 154.46505,100.62513 q -3.21951,0 -3.21951,-1.795496 V 65.767771 q 0,-4.210124 -0.37148,-6.129446 -0.30957,-1.919322 -0.30957,-2.352717 0,-0.86679 2.10506,-1.300186 2.10507,-0.495308 3.65291,-0.495308 1.11444,0 1.54784,0.990617 0.43339,0.990618 0.80487,2.90994 1.11445,-2.043149 2.84803,-3.219508 1.79549,-1.176358 3.96247,-1.176358 2.84802,0 4.95309,2.043149 2.16697,1.981235 3.34333,5.757965 1.17636,3.776729 1.17636,8.977472 0,7.863027 -2.78611,12.196979 -2.7242,4.272039 -7.49155,4.272039 -3.34333,0 -5.57222,-2.22889 v 12.816115 q 0,1.795496 -3.28142,1.795496 z m 8.11068,-18.697909 q 2.22889,0 3.28142,-2.41463 1.11445,-2.476544 1.11445,-7.863027 0,-10.215745 -3.90056,-10.215745 -2.2908,0 -3.96247,3.09568 v 15.849882 q 1.42401,1.54784 3.46716,1.54784 z" />
      <path
         id="path892"
         style="font-style:normal;font-variant:normal;font-weight:600;font-stretch:normal;font-size:61.9136px;font-family:'Asap Condensed';-inkscape-font-specification:'Asap Condensed, Semi-Bold';font-variant-ligatures:normal;font-variant-caps:normal;font-variant-numeric:normal;font-variant-east-asian:normal;fill:#00b8b8;fill-opacity:1;stroke-width:3.17638"
         d="m 180.65076,87.932841 q -3.15759,0 -3.15759,-1.795495 V 42.921653 q 0,-1.733581 3.15759,-1.733581 h 1.67167 q 3.09568,0 3.09568,1.733581 v 16.221363 q 1.3621,-1.857408 3.28142,-2.971853 1.98123,-1.176358 4.39587,-1.176358 3.40524,0 5.32457,2.290803 1.98123,2.22889 1.98123,6.686669 v 22.165069 q 0,1.795495 -3.15759,1.795495 h -1.54784 q -1.67167,0 -2.41463,-0.433396 -0.74297,-0.433395 -0.74297,-1.362099 V 65.520117 q 0,-4.024384 -3.15759,-4.024384 -1.3621,0 -2.41463,0.86679 -1.05253,0.866791 -1.54784,1.919322 v 21.855501 q 0,0.928704 -0.80488,1.362099 -0.74296,0.433396 -2.35271,0.433396 z" />
      <path
         id="path894"
         style="font-style:normal;font-variant:normal;font-weight:600;font-stretch:normal;font-size:61.9136px;font-family:'Asap Condensed';-inkscape-font-specification:'Asap Condensed, Semi-Bold';font-variant-ligatures:normal;font-variant-caps:normal;font-variant-numeric:normal;font-variant-east-asian:normal;fill:#00b8b8;fill-opacity:1;stroke-width:3.17638"
         d="m 211.48134,88.242409 q -4.14821,0 -6.43901,-2.538458 -2.22889,-2.600371 -2.22889,-7.120064 0,-5.262656 3.6529,-8.358336 3.71482,-3.09568 11.51593,-3.09568 v -1.671668 q 0,-4.210124 -4.33395,-4.210124 -1.67167,0 -2.90994,0.433395 -1.23827,0.371481 -2.66229,1.052531 -0.80487,0.495309 -1.17635,0.495309 -0.80488,0 -1.85741,-1.671667 -0.99062,-1.733581 -0.99062,-2.662285 0,-0.990618 1.42401,-1.857408 1.48593,-0.928704 3.83865,-1.485927 2.35271,-0.557222 4.82926,-0.557222 5.9437,0 8.79173,2.724198 2.84802,2.724199 2.84802,7.491546 v 12.320807 q 0,4.210124 0.37149,6.19136 0.37148,1.919321 0.37148,2.352717 0,0.86679 -2.04315,1.362099 -2.04315,0.433395 -3.6529,0.433395 -0.92871,0 -1.3621,-0.804877 -0.4334,-0.804877 -0.86679,-2.538457 -1.05253,1.54784 -2.90994,2.662284 -1.7955,1.052532 -4.21013,1.052532 z m 2.16698,-6.00562 q 1.30018,0 2.41463,-0.681049 1.17636,-0.68105 1.91932,-1.857408 v -7.491546 q -7.92494,0 -7.92494,5.881792 0,1.981235 0.86679,3.09568 0.9287,1.052531 2.7242,1.052531 z" />
      <path
         id="path896"
         style="font-style:normal;font-variant:normal;font-weight:600;font-stretch:normal;font-size:61.9136px;font-family:'Asap Condensed';-inkscape-font-specification:'Asap Condensed, Semi-Bold';font-variant-ligatures:normal;font-variant-caps:normal;font-variant-numeric:normal;font-variant-east-asian:normal;fill:#00b8b8;fill-opacity:1;stroke-width:3.17638"
         d="m 232.21907,87.932841 q -3.09568,0 -3.09568,-1.795495 V 65.705858 q 0,-4.272039 -0.30956,-6.129447 -0.30957,-1.857408 -0.30957,-2.166976 0,-0.990617 2.10506,-1.424013 2.16698,-0.495308 3.77673,-0.495308 1.05253,0 1.42401,0.742963 0.37148,0.68105 0.49531,1.733581 0.18574,1.052531 0.30957,1.671667 1.3621,-2.043149 3.40525,-3.343335 2.10506,-1.300185 4.5816,-1.300185 3.59099,0 5.4484,2.290803 1.85741,2.290803 1.85741,6.686669 v 22.165069 q 0,1.795495 -3.1576,1.795495 h -1.54784 q -3.2195,0 -3.2195,-1.795495 V 65.520117 q 0,-2.043149 -0.74297,-3.033766 -0.68105,-0.990618 -2.2908,-0.990618 -1.17636,0 -2.22889,0.804877 -1.05253,0.742963 -1.73358,1.981235 v 21.855501 q 0,0.928704 -0.80488,1.362099 -0.74296,0.433396 -2.35271,0.433396 z" />
      <path
         id="path898"
         style="font-style:normal;font-variant:normal;font-weight:600;font-stretch:normal;font-size:61.9136px;font-family:'Asap Condensed';-inkscape-font-specification:'Asap Condensed, Semi-Bold';font-variant-ligatures:normal;font-variant-caps:normal;font-variant-numeric:normal;font-variant-east-asian:normal;fill:#00b8b8;fill-opacity:1;stroke-width:3.17638"
         d="m 263.48595,88.242409 q -3.34333,0 -5.4484,-2.105063 Q 255.9944,83.97037 255.9944,79.32685 V 61.681474 h -1.11444 q -0.86679,0 -1.30019,-0.619136 -0.37148,-0.619136 -0.37148,-2.043149 v -0.928704 q 0,-1.424013 0.37148,-2.043149 0.4334,-0.619136 1.30019,-0.619136 h 1.11444 l 0.80488,-6.067533 q 0.18574,-1.795494 2.84803,-1.795494 h 1.48592 q 2.66229,0 2.66229,1.795494 V 55.4282 h 2.90994 q 0.86679,0 1.23827,0.619136 0.43339,0.619136 0.43339,2.043149 v 0.928704 q 0,1.424013 -0.43339,2.043149 -0.37148,0.619136 -1.23827,0.619136 h -2.90994 v 17.521549 q 0,1.485926 0.43339,2.166976 0.49531,0.619136 1.3621,0.619136 0.49531,0 1.05253,-0.123827 0.55723,-0.123828 0.80488,-0.123828 0.68105,0 1.17636,1.54784 0.49531,1.547841 0.49531,2.352717 0,1.3621 -1.85741,1.981236 -1.79549,0.619136 -3.77673,0.619136 z" />
      <path
         id="path900"
         style="font-style:normal;font-variant:normal;font-weight:600;font-stretch:normal;font-size:61.9136px;font-family:'Asap Condensed';-inkscape-font-specification:'Asap Condensed, Semi-Bold';font-variant-ligatures:normal;font-variant-caps:normal;font-variant-numeric:normal;font-variant-east-asian:normal;fill:#00b8b8;fill-opacity:1;stroke-width:3.17638"
         d="m 281.27947,88.242409 q -6.06754,0 -9.22513,-4.272039 -3.15759,-4.272038 -3.15759,-12.320806 0,-8.110682 3.09568,-12.382721 3.15759,-4.272038 9.28704,-4.272038 6.12944,0 9.22512,4.272038 3.1576,4.272039 3.1576,12.382721 0,8.110681 -3.1576,12.38272 -3.15759,4.210125 -9.22512,4.210125 z m 0,-6.253274 q 2.35271,0 3.34333,-2.414631 1.05253,-2.41463 1.05253,-7.986854 0,-5.572224 -1.05253,-7.924941 -0.99062,-2.41463 -3.34333,-2.41463 -2.35272,0 -3.40525,2.41463 -1.05253,2.352717 -1.05253,7.924941 0,5.572224 1.05253,7.986854 1.05253,2.414631 3.40525,2.414631 z" />
      <path
         id="path902"
         style="font-style:normal;font-variant:normal;font-weight:600;font-stretch:normal;font-size:61.9136px;font-family:'Asap Condensed';-inkscape-font-specification:'Asap Condensed, Semi-Bold';font-variant-ligatures:normal;font-variant-caps:normal;font-variant-numeric:normal;font-variant-east-asian:normal;fill:#00b8b8;fill-opacity:1;stroke-width:3.17638"
         d="m 325.98761,54.994805 q 3.40525,0 5.26266,2.290803 1.91932,2.290803 1.91932,6.810496 v 22.041242 q 0,1.795495 -3.15759,1.795495 h -1.54784 q -3.1576,0 -3.1576,-1.795495 V 65.643944 q 0,-2.043149 -0.74296,-3.09568 -0.68105,-1.052531 -2.22889,-1.052531 -1.17636,0 -2.16698,0.742963 -0.99061,0.68105 -1.73358,1.733581 v 0.247654 21.917415 q 0,1.795495 -3.15759,1.795495 h -1.60975 q -3.1576,0 -3.1576,-1.795495 V 65.643944 q 0,-2.043149 -0.74296,-3.09568 -0.68105,-1.052531 -2.22889,-1.052531 -1.3621,0 -2.35272,0.86679 -0.99061,0.866791 -1.54784,1.919322 v 21.855501 q 0,0.928704 -0.80487,1.362099 -0.74297,0.433396 -2.35272,0.433396 h -1.60975 q -3.09568,0 -3.09568,-1.795495 V 65.705858 q 0,-4.272039 -0.30957,-6.129447 -0.30957,-1.857408 -0.30957,-2.166976 0,-0.990617 2.10506,-1.424013 2.16698,-0.495308 3.77673,-0.495308 1.05253,0 1.42401,0.742963 0.37149,0.68105 0.49531,1.733581 0.18574,1.052531 0.30957,1.671667 1.3621,-2.043149 3.34334,-3.343335 2.04315,-1.300185 4.5816,-1.300185 2.41463,0 4.0863,1.114445 1.73358,1.114445 2.47654,3.343334 1.3621,-1.981235 3.46717,-3.219507 2.16697,-1.238272 4.76734,-1.238272 z" />
      <path
         id="path904"
         style="font-style:normal;font-variant:normal;font-weight:600;font-stretch:normal;font-size:61.9136px;font-family:'Asap Condensed';-inkscape-font-specification:'Asap Condensed, Semi-Bold';font-variant-ligatures:normal;font-variant-caps:normal;font-variant-numeric:normal;font-variant-east-asian:normal;fill:#00b8b8;fill-opacity:1;stroke-width:3.17638"
         d="m 358.90333,88.242409 q -2.78612,0 -4.95309,-1.981236 -2.10506,-2.043148 -3.34334,-5.819878 -1.17635,-3.77673 -1.17635,-8.977472 0,-7.863028 2.72419,-12.135066 2.78612,-4.333952 7.55346,-4.333952 3.28142,0 5.63414,2.22889 V 42.921653 q 0,-1.733581 3.21951,-1.733581 h 1.3621 q 3.2195,0 3.2195,1.733581 v 34.609703 q 0,4.148211 0.37149,6.19136 0.37148,2.043149 0.37148,2.352717 0,0.86679 -2.16698,1.362099 -2.10506,0.433395 -3.6529,0.433395 -1.11445,0 -1.54784,-0.990618 -0.4334,-1.052531 -0.80488,-3.033766 -1.11444,2.043149 -2.90994,3.219507 -1.73358,1.176359 -3.90055,1.176359 z m 2.47654,-6.439015 q 1.11445,0 2.10506,-0.804877 1.05253,-0.86679 1.85741,-2.290803 V 62.857832 q -1.54784,-1.54784 -3.46716,-1.54784 -2.2908,0 -3.40525,2.476544 -1.05253,2.414631 -1.05253,7.801114 0,5.200742 0.99062,7.7392 0.99062,2.476544 2.97185,2.476544 z" />
      <path
         id="path906"
         style="font-style:normal;font-variant:normal;font-weight:600;font-stretch:normal;font-size:61.9136px;font-family:'Asap Condensed';-inkscape-font-specification:'Asap Condensed, Semi-Bold';font-variant-ligatures:normal;font-variant-caps:normal;font-variant-numeric:normal;font-variant-east-asian:normal;fill:#00b8b8;fill-opacity:1;stroke-width:3.17638"
         d="m 381.38273,51.403816 q -3.77673,0 -3.77673,-1.795494 V 46.14116 q 0,-1.795494 3.71481,-1.795494 3.77673,0 3.77673,1.795494 v 3.467162 q 0,1.795494 -3.71481,1.795494 z m -0.74296,36.529025 q -3.28143,0 -3.28143,-1.795495 V 57.099867 q 0,-1.795494 3.28143,-1.795494 h 1.23827 q 3.28142,0 3.28142,1.795494 v 29.037479 q 0,1.795495 -3.28142,1.795495 z" />
    </g>
  </g>
</svg>
